<?xml version="1.0" encoding="utf-8"?>
<!DOCTYPE svg PUBLIC "-//W3C//DTD SVG 1.1//EN" "http://www.w3.org/Graphics/SVG/1.1/DTD/svg11.dtd">
<svg version="1.1" id="Layer_1" xmlns="http://www.w3.org/2000/svg" xmlns:xlink="http://www.w3.org/1999/xlink" x="0px" y="0px"
   viewBox="0 0 150 150" style="enable-background:new 0 0 150 150;" xml:space="preserve">
<style type="text/css">
  .st0{fill:#4C8DDA;}
  .st1{fill:#453DF4;}
  .st2{fill:#5770F9;}
  .st3{fill:#60D9F1;}
</style>
<g>
  <path class="st0" d="M112.5,60.4l32.4-12.6c-3.7-9.4-9.3-18.2-16.9-25.8l-24.6,24.6C107.4,50.4,110.5,55.2,112.5,60.4z"/>
  <path class="st1" d="M115.3,75c0,0.2,0,0.3,0,0.5H150c0-9-1.7-18.5-5.1-27.2l-32.2,12.5C114.4,65.2,115.3,70,115.3,75z"/>
  <path class="st2" d="M115.3,75.5c-0.1,11-4.7,21-12,28.2l24.8,24.8c14.6-14.6,22-33,22-53H115.3z"/>
  <path class="st3" d="M75,115.3c-22.2,0-40.3-18-40.3-40.3c0-22.2,18-40.3,40.3-40.3c11.1,0,21.2,4.5,28.5,11.8L128,22
    C98.7-7.3,51.3-7.3,22,22C-7.3,51.3-7.3,98.7,22,128c29.3,29.3,76.8,29.3,106.1,0l-24.6-24.6C96.2,110.8,86.1,115.3,75,115.3z"/>
</g>
</svg>