<svg xmlns="http://www.w3.org/2000/svg" xmlns:xlink="http://www.w3.org/1999/xlink" width="680" height="660"><g transform="translate(-60 -60)"><path d="M720 390c0 171.2-143.27 310-320 310S80 561.2 80 390 223.27 80 400 80s320 138.8 320 310z" stroke="#000" stroke-width="2" fill="#c7e8ac" fill-opacity=".51"/><use xlink:href="#a" transform="matrix(1,0,0,1,85,85) translate(243.875 114.19999999999996)"/><use xlink:href="#b" transform="matrix(1,0,0,1,85,85) translate(315 135.79999999999995)"/><use xlink:href="#c" transform="matrix(1,0,0,1,85,85) translate(222.075 157.39999999999995)"/><use xlink:href="#d" transform="matrix(1,0,0,1,85,85) translate(255.02499999999998 157.39999999999995)"/><use xlink:href="#e" transform="matrix(1,0,0,1,85,85) translate(300.975 157.39999999999995)"/><use xlink:href="#f" transform="matrix(1,0,0,1,85,85) translate(334.975 157.39999999999995)"/><use xlink:href="#g" transform="matrix(1,0,0,1,85,85) translate(228.575 178.99999999999997)"/><use xlink:href="#h" transform="matrix(1,0,0,1,85,85) translate(243.575 178.99999999999997)"/><use xlink:href="#i" transform="matrix(1,0,0,1,85,85) translate(272.575 178.99999999999997)"/><use xlink:href="#j" transform="matrix(1,0,0,1,85,85) translate(326.475 178.99999999999997)"/><use xlink:href="#k" transform="matrix(1,0,0,1,85,85) translate(357.42499999999995 178.99999999999997)"/><use xlink:href="#b" transform="matrix(1,0,0,1,85,85) translate(315 200.59999999999997)"/><use xlink:href="#b" transform="matrix(1,0,0,1,85,85) translate(315 222.19999999999996)"/><use xlink:href="#b" transform="matrix(1,0,0,1,85,85) translate(315 243.79999999999995)"/><use xlink:href="#b" transform="matrix(1,0,0,1,85,85) translate(315 265.3999999999999)"/><use xlink:href="#b" transform="matrix(1,0,0,1,85,85) translate(315 286.9999999999999)"/><use xlink:href="#b" transform="matrix(1,0,0,1,85,85) translate(315 308.5999999999999)"/><use xlink:href="#b" transform="matrix(1,0,0,1,85,85) translate(315 330.19999999999993)"/><use xlink:href="#b" transform="matrix(1,0,0,1,85,85) translate(315 351.7999999999999)"/><use xlink:href="#b" transform="matrix(1,0,0,1,85,85) translate(315 373.3999999999999)"/><use xlink:href="#b" transform="matrix(1,0,0,1,85,85) translate(315 394.99999999999994)"/><use xlink:href="#b" transform="matrix(1,0,0,1,85,85) translate(315 416.59999999999997)"/><use xlink:href="#b" transform="matrix(1,0,0,1,85,85) translate(315 438.2)"/><use xlink:href="#b" transform="matrix(1,0,0,1,85,85) translate(315 459.8)"/><use xlink:href="#b" transform="matrix(1,0,0,1,85,85) translate(315 481.40000000000003)"/><use xlink:href="#l" transform="matrix(1,0,0,1,85,85) translate(315 503.00000000000006)"/><path d="M420 440c0 88.37-71.63 160-160 160s-160-71.63-160-160 71.63-160 160-160 160 71.63 160 160z" stroke="#000" stroke-width="2" fill="#c1e4f7" fill-opacity=".51"/><g><use xlink:href="#m" transform="matrix(1,0,0,1,105,285) translate(84 104.60000000000001)"/><use xlink:href="#b" transform="matrix(1,0,0,1,105,285) translate(155 126.20000000000002)"/><use xlink:href="#n" transform="matrix(1,0,0,1,105,285) translate(74.05 147.8)"/><use xlink:href="#o" transform="matrix(1,0,0,1,105,285) translate(131.95 147.8)"/><use xlink:href="#p" transform="matrix(1,0,0,1,105,285) translate(156.95 147.8)"/><use xlink:href="#q" transform="matrix(1,0,0,1,105,285) translate(195.95 147.8)"/><use xlink:href="#r" transform="matrix(1,0,0,1,105,285) translate(48.69999999999999 169.4)"/><use xlink:href="#s" transform="matrix(1,0,0,1,105,285) translate(95.64999999999999 169.4)"/><use xlink:href="#t" transform="matrix(1,0,0,1,105,285) translate(113.6 169.4)"/><use xlink:href="#u" transform="matrix(1,0,0,1,105,285) translate(153.5 169.4)"/><use xlink:href="#v" transform="matrix(1,0,0,1,105,285) translate(209.4 169.4)"/><use xlink:href="#r" transform="matrix(1,0,0,1,105,285) translate(54.675 191.00000000000003)"/><use xlink:href="#s" transform="matrix(1,0,0,1,105,285) translate(101.625 191.00000000000003)"/><use xlink:href="#t" transform="matrix(1,0,0,1,105,285) translate(119.575 191.00000000000003)"/><use xlink:href="#w" transform="matrix(1,0,0,1,105,285) translate(159.47500000000002 191.00000000000003)"/><use xlink:href="#x" transform="matrix(1,0,0,1,105,285) translate(187.425 191.00000000000003)"/><use xlink:href="#r" transform="matrix(1,0,0,1,105,285) translate(33.64999999999999 212.6)"/><use xlink:href="#y" transform="matrix(1,0,0,1,105,285) translate(80.6 212.6)"/><use xlink:href="#j" transform="matrix(1,0,0,1,105,285) translate(134.6 212.6)"/><use xlink:href="#t" transform="matrix(1,0,0,1,105,285) translate(165.55 212.6)"/><use xlink:href="#z" transform="matrix(1,0,0,1,105,285) translate(205.45 212.6)"/></g><path d="M700 440c0 88.37-71.63 160-160 160s-160-71.63-160-160 71.63-160 160-160 160 71.63 160 160z" stroke="#000" stroke-width="2" fill="#99d5ca" fill-opacity=".51"/><g><use xlink:href="#A" transform="matrix(1,0,0,1,385,285) translate(80.375 104.60000000000001)"/><use xlink:href="#b" transform="matrix(1,0,0,1,385,285) translate(155 126.20000000000002)"/><use xlink:href="#r" transform="matrix(1,0,0,1,385,285) translate(66.07499999999999 147.8)"/><use xlink:href="#B" transform="matrix(1,0,0,1,385,285) translate(113.02499999999999 147.8)"/><use xlink:href="#C" transform="matrix(1,0,0,1,385,285) translate(150.975 147.8)"/><use xlink:href="#f" transform="matrix(1,0,0,1,385,285) translate(170.975 147.8)"/><use xlink:href="#D" transform="matrix(1,0,0,1,385,285) translate(50.625 169.4)"/><use xlink:href="#E" transform="matrix(1,0,0,1,385,285) translate(91.525 169.4)"/><use xlink:href="#j" transform="matrix(1,0,0,1,385,285) translate(184.425 169.4)"/><use xlink:href="#k" transform="matrix(1,0,0,1,385,285) translate(215.375 169.4)"/><use xlink:href="#F" transform="matrix(1,0,0,1,385,285) translate(49.14999999999998 191.00000000000003)"/><use xlink:href="#G" transform="matrix(1,0,0,1,385,285) translate(87.09999999999998 191.00000000000003)"/><use xlink:href="#H" transform="matrix(1,0,0,1,385,285) translate(115.04999999999998 191.00000000000003)"/><use xlink:href="#I" transform="matrix(1,0,0,1,385,285) translate(183 191.00000000000003)"/><use xlink:href="#J" transform="matrix(1,0,0,1,385,285) translate(75.125 212.6)"/><use xlink:href="#K" transform="matrix(1,0,0,1,385,285) translate(112.025 212.6)"/><use xlink:href="#L" transform="matrix(1,0,0,1,385,285) translate(154.97500000000002 212.6)"/></g><defs><path d="M24 0v-248h52V0H24" id="M"/><path d="M24-248c120-7 223 5 221 122C244-46 201 0 124 0H24v-248zM76-40c74 7 117-18 117-86 0-67-45-88-117-82v168" id="N"/><path d="M24 0v-248h195v40H76v63h132v40H76v65h150V0H24" id="O"/><path d="M175 0L67-191c6 58 2 128 3 191H24v-248h59L193-55c-6-58-2-129-3-193h46V0h-61" id="P"/><path d="M136-208V0H84v-208H4v-40h212v40h-80" id="Q"/><path d="M76-208v77h127v40H76V0H24v-248h183v40H76" id="R"/><path d="M67-125c0 53 21 87 73 88 37 1 54-22 65-47l45 17C233-25 199 4 140 4 58 4 20-42 15-125 8-235 124-281 211-232c18 10 29 29 36 50l-46 12c-8-25-30-41-62-41-52 0-71 34-72 86" id="S"/><path d="M199 0l-22-63H83L61 0H9l90-248h61L250 0h-51zm-33-102l-36-108c-10 38-24 72-36 108h72" id="T"/><path d="M140-251c80 0 125 45 125 126S219 4 139 4C58 4 15-44 15-125s44-126 125-126zm-1 214c52 0 73-35 73-88 0-50-21-86-72-86-52 0-73 35-73 86s22 88 72 88" id="U"/><g id="a"><use transform="matrix(0.05,0,0,0.05,0,0)" xlink:href="#M"/><use transform="matrix(0.05,0,0,0.05,5,0)" xlink:href="#N"/><use transform="matrix(0.05,0,0,0.05,17.950000000000003,0)" xlink:href="#O"/><use transform="matrix(0.05,0,0,0.05,29.950000000000003,0)" xlink:href="#P"/><use transform="matrix(0.05,0,0,0.05,42.900000000000006,0)" xlink:href="#Q"/><use transform="matrix(0.05,0,0,0.05,53.85,0)" xlink:href="#M"/><use transform="matrix(0.05,0,0,0.05,58.85,0)" xlink:href="#R"/><use transform="matrix(0.05,0,0,0.05,69.80000000000001,0)" xlink:href="#M"/><use transform="matrix(0.05,0,0,0.05,74.80000000000001,0)" xlink:href="#S"/><use transform="matrix(0.05,0,0,0.05,87.75000000000001,0)" xlink:href="#T"/><use transform="matrix(0.05,0,0,0.05,99.35000000000002,0)" xlink:href="#Q"/><use transform="matrix(0.05,0,0,0.05,110.30000000000003,0)" xlink:href="#M"/><use transform="matrix(0.05,0,0,0.05,115.30000000000003,0)" xlink:href="#U"/><use transform="matrix(0.05,0,0,0.05,129.3,0)" xlink:href="#P"/></g><path d="M205 0l-28-72H64L36 0H1l101-248h38L239 0h-34zm-38-99l-47-123c-12 45-31 82-46 123h93" id="V"/><path d="M114-163C36-179 61-72 57 0H25l-1-190h30c1 12-1 29 2 39 6-27 23-49 58-41v29" id="W"/><path d="M100-194c63 0 86 42 84 106H49c0 40 14 67 53 68 26 1 43-12 49-29l28 8c-11 28-37 45-77 45C44 4 14-33 15-96c1-61 26-98 85-98zm52 81c6-60-76-77-97-28-3 7-6 17-6 28h103" id="X"/><g id="c"><use transform="matrix(0.05,0,0,0.05,0,0)" xlink:href="#V"/><use transform="matrix(0.05,0,0,0.05,12,0)" xlink:href="#W"/><use transform="matrix(0.05,0,0,0.05,17.95,0)" xlink:href="#X"/></g><path d="M59-47c-2 24 18 29 38 22v24C64 9 27 4 27-40v-127H5v-23h24l9-43h21v43h35v23H59v120" id="Y"/><path d="M106-169C34-169 62-67 57 0H25v-261h32l-1 103c12-21 28-36 61-36 89 0 53 116 60 194h-32v-121c2-32-8-49-39-48" id="Z"/><g id="d"><use transform="matrix(0.05,0,0,0.05,0,0)" xlink:href="#Y"/><use transform="matrix(0.05,0,0,0.05,5,0)" xlink:href="#Z"/><use transform="matrix(0.05,0,0,0.05,15,0)" xlink:href="#X"/><use transform="matrix(0.05,0,0,0.05,25,0)" xlink:href="#W"/><use transform="matrix(0.05,0,0,0.05,30.950000000000003,0)" xlink:href="#X"/></g><path d="M141-36C126-15 110 5 73 4 37 3 15-17 15-53c-1-64 63-63 125-63 3-35-9-54-41-54-24 1-41 7-42 31l-33-3c5-37 33-52 76-52 45 0 72 20 72 64v82c-1 20 7 32 28 27v20c-31 9-61-2-59-35zM48-53c0 20 12 33 32 33 41-3 63-29 60-74-43 2-92-5-92 41" id="aa"/><path d="M117-194c89-4 53 116 60 194h-32v-121c0-31-8-49-39-48C34-167 62-67 57 0H25l-1-190h30c1 10-1 24 2 32 11-22 29-35 61-36" id="ab"/><path d="M179-190L93 31C79 59 56 82 12 73V49c39 6 53-20 64-50L1-190h34L92-34l54-156h33" id="ac"/><g id="e"><use transform="matrix(0.05,0,0,0.05,0,0)" xlink:href="#aa"/><use transform="matrix(0.05,0,0,0.05,10,0)" xlink:href="#ab"/><use transform="matrix(0.05,0,0,0.05,20,0)" xlink:href="#ac"/></g><path d="M100-194c62-1 85 37 85 99 1 63-27 99-86 99S16-35 15-95c0-66 28-99 85-99zM99-20c44 1 53-31 53-75 0-43-8-75-51-75s-53 32-53 75 10 74 51 75" id="ad"/><path d="M85-194c31 0 48 13 60 33l-1-100h32l1 261h-30c-2-10 0-23-3-31C134-8 116 4 85 4 32 4 16-35 15-94c0-66 23-100 70-100zm9 24c-40 0-46 34-46 75 0 40 6 74 45 74 42 0 51-32 51-76 0-42-9-74-50-73" id="ae"/><path d="M84 4C-5 8 30-112 23-190h32v120c0 31 7 50 39 49 72-2 45-101 50-169h31l1 190h-30c-1-10 1-25-2-33-11 22-28 36-60 37" id="af"/><path d="M24 0v-261h32V0H24" id="ag"/><path d="M135-143c-3-34-86-38-87 0 15 53 115 12 119 90S17 21 10-45l28-5c4 36 97 45 98 0-10-56-113-15-118-90-4-57 82-63 122-42 12 7 21 19 24 35" id="ah"/><path d="M103-251c84 0 111 97 45 133-19 10-37 24-39 52H78c0-63 77-55 77-114 0-30-21-42-52-43-32 0-53 17-56 46l-32-2c7-45 34-72 88-72zM77 0v-35h34V0H77" id="ai"/><g id="f"><use transform="matrix(0.05,0,0,0.05,0,0)" xlink:href="#ab"/><use transform="matrix(0.05,0,0,0.05,10,0)" xlink:href="#ad"/><use transform="matrix(0.05,0,0,0.05,20,0)" xlink:href="#ae"/><use transform="matrix(0.05,0,0,0.05,30,0)" xlink:href="#af"/><use transform="matrix(0.05,0,0,0.05,40,0)" xlink:href="#ag"/><use transform="matrix(0.05,0,0,0.05,43.95,0)" xlink:href="#X"/><use transform="matrix(0.05,0,0,0.05,53.95,0)" xlink:href="#ah"/><use transform="matrix(0.05,0,0,0.05,62.95,0)" xlink:href="#ai"/></g><path d="M33 0v-248h34V0H33" id="aj"/><path d="M101-234c-31-9-42 10-38 44h38v23H63V0H32v-167H5v-23h27c-7-52 17-82 69-68v24" id="ak"/><g id="g"><use transform="matrix(0.05,0,0,0.05,0,0)" xlink:href="#aj"/><use transform="matrix(0.05,0,0,0.05,5,0)" xlink:href="#ak"/></g><path d="M68-38c1 34 0 65-14 84H32c9-13 17-26 17-46H33v-38h35" id="al"/><g id="h"><use transform="matrix(0.05,0,0,0.05,0,0)" xlink:href="#ah"/><use transform="matrix(0.05,0,0,0.05,9,0)" xlink:href="#ad"/><use transform="matrix(0.05,0,0,0.05,19,0)" xlink:href="#al"/></g><path d="M206 0h-36l-40-164L89 0H53L-1-190h32L70-26l43-164h34l41 164 42-164h31" id="am"/><g id="i"><use transform="matrix(0.05,0,0,0.05,0,0)" xlink:href="#am"/><use transform="matrix(0.05,0,0,0.05,12.950000000000001,0)" xlink:href="#Z"/><use transform="matrix(0.05,0,0,0.05,22.950000000000003,0)" xlink:href="#X"/><use transform="matrix(0.05,0,0,0.05,32.95,0)" xlink:href="#W"/><use transform="matrix(0.05,0,0,0.05,38.900000000000006,0)" xlink:href="#X"/></g><g id="j"><use transform="matrix(0.05,0,0,0.05,0,0)" xlink:href="#aa"/><use transform="matrix(0.05,0,0,0.05,10,0)" xlink:href="#W"/><use transform="matrix(0.05,0,0,0.05,15.949999999999998,0)" xlink:href="#X"/></g><g id="k"><use transform="matrix(0.05,0,0,0.05,0,0)" xlink:href="#Y"/><use transform="matrix(0.05,0,0,0.05,5,0)" xlink:href="#Z"/><use transform="matrix(0.05,0,0,0.05,15,0)" xlink:href="#X"/><use transform="matrix(0.05,0,0,0.05,25,0)" xlink:href="#ac"/><use transform="matrix(0.05,0,0,0.05,34,0)" xlink:href="#ai"/></g><path d="M169-182c-1-43-94-46-97-3 18 66 151 10 154 114 3 95-165 93-204 36-6-8-10-19-12-30l50-8c3 46 112 56 116 5-17-69-150-10-154-114-4-87 153-88 188-35 5 8 8 18 10 28" id="an"/><path d="M67-125c0 54 23 88 75 88 28 0 53-7 68-21v-34h-60v-39h108v91C232-14 192 4 140 4 58 4 20-42 15-125 8-236 126-280 215-234c19 10 29 26 37 47l-47 15c-11-23-29-39-63-39-53 1-75 33-75 86" id="ao"/><path d="M230 0l2-204L168 0h-37L68-204 70 0H24v-248h70l56 185 57-185h69V0h-46" id="ap"/><g id="m"><use transform="matrix(0.05,0,0,0.05,0,0)" xlink:href="#an"/><use transform="matrix(0.05,0,0,0.05,12,0)" xlink:href="#O"/><use transform="matrix(0.05,0,0,0.05,24,0)" xlink:href="#ao"/><use transform="matrix(0.05,0,0,0.05,38,0)" xlink:href="#ap"/><use transform="matrix(0.05,0,0,0.05,52.95,0)" xlink:href="#O"/><use transform="matrix(0.05,0,0,0.05,64.95,0)" xlink:href="#P"/><use transform="matrix(0.05,0,0,0.05,77.9,0)" xlink:href="#Q"/><use transform="matrix(0.05,0,0,0.05,87.50000000000001,0)" xlink:href="#T"/><use transform="matrix(0.05,0,0,0.05,99.10000000000002,0)" xlink:href="#Q"/><use transform="matrix(0.05,0,0,0.05,110.05000000000003,0)" xlink:href="#M"/><use transform="matrix(0.05,0,0,0.05,115.05000000000003,0)" xlink:href="#U"/><use transform="matrix(0.05,0,0,0.05,129.05,0)" xlink:href="#P"/></g><path d="M266 0h-40l-56-210L115 0H75L2-248h35L96-30l15-64 43-154h32l59 218 59-218h35" id="aq"/><g id="n"><use transform="matrix(0.05,0,0,0.05,0,0)" xlink:href="#aq"/><use transform="matrix(0.05,0,0,0.05,16.95,0)" xlink:href="#Z"/><use transform="matrix(0.05,0,0,0.05,26.950000000000003,0)" xlink:href="#X"/><use transform="matrix(0.05,0,0,0.05,36.95,0)" xlink:href="#W"/><use transform="matrix(0.05,0,0,0.05,42.900000000000006,0)" xlink:href="#X"/></g><g id="o"><use transform="matrix(0.05,0,0,0.05,0,0)" xlink:href="#ae"/><use transform="matrix(0.05,0,0,0.05,10,0)" xlink:href="#ad"/></g><g id="p"><use transform="matrix(0.05,0,0,0.05,0,0)" xlink:href="#Y"/><use transform="matrix(0.05,0,0,0.05,5,0)" xlink:href="#Z"/><use transform="matrix(0.05,0,0,0.05,15,0)" xlink:href="#X"/><use transform="matrix(0.05,0,0,0.05,25,0)" xlink:href="#ac"/></g><g id="q"><use transform="matrix(0.05,0,0,0.05,0,0)" xlink:href="#X"/><use transform="matrix(0.05,0,0,0.05,10,0)" xlink:href="#ab"/><use transform="matrix(0.05,0,0,0.05,20,0)" xlink:href="#ae"/><use transform="matrix(0.05,0,0,0.05,30,0)" xlink:href="#ai"/></g><g id="r"><use transform="matrix(0.05,0,0,0.05,0,0)" xlink:href="#aq"/><use transform="matrix(0.05,0,0,0.05,16.95,0)" xlink:href="#Z"/><use transform="matrix(0.05,0,0,0.05,26.950000000000003,0)" xlink:href="#aa"/><use transform="matrix(0.05,0,0,0.05,36.95,0)" xlink:href="#Y"/></g><path d="M24-231v-30h32v30H24zM24 0v-190h32V0H24" id="ar"/><g id="s"><use transform="matrix(0.05,0,0,0.05,0,0)" xlink:href="#ar"/><use transform="matrix(0.05,0,0,0.05,3.95,0)" xlink:href="#ah"/></g><g id="t"><use transform="matrix(0.05,0,0,0.05,0,0)" xlink:href="#Y"/><use transform="matrix(0.05,0,0,0.05,5,0)" xlink:href="#Z"/><use transform="matrix(0.05,0,0,0.05,15,0)" xlink:href="#X"/><use transform="matrix(0.05,0,0,0.05,25,0)" xlink:href="#ar"/><use transform="matrix(0.05,0,0,0.05,28.950000000000003,0)" xlink:href="#W"/></g><g id="u"><use transform="matrix(0.05,0,0,0.05,0,0)" xlink:href="#am"/><use transform="matrix(0.05,0,0,0.05,12.950000000000001,0)" xlink:href="#ar"/><use transform="matrix(0.05,0,0,0.05,16.900000000000002,0)" xlink:href="#ae"/><use transform="matrix(0.05,0,0,0.05,26.900000000000002,0)" xlink:href="#X"/><use transform="matrix(0.05,0,0,0.05,36.900000000000006,0)" xlink:href="#ah"/><use transform="matrix(0.05,0,0,0.05,45.900000000000006,0)" xlink:href="#Y"/></g><g id="v"><use transform="matrix(0.05,0,0,0.05,0,0)" xlink:href="#am"/><use transform="matrix(0.05,0,0,0.05,12.950000000000001,0)" xlink:href="#ar"/><use transform="matrix(0.05,0,0,0.05,16.900000000000002,0)" xlink:href="#ae"/><use transform="matrix(0.05,0,0,0.05,26.900000000000002,0)" xlink:href="#Y"/><use transform="matrix(0.05,0,0,0.05,31.900000000000002,0)" xlink:href="#Z"/><use transform="matrix(0.05,0,0,0.05,41.900000000000006,0)" xlink:href="#ai"/></g><path d="M126-127c33 6 58 20 58 59 0 88-139 92-164 29-3-8-5-16-6-25l32-3c6 27 21 44 54 44 32 0 52-15 52-46 0-38-36-46-79-43v-28c39 1 72-4 72-42 0-27-17-43-46-43-28 0-47 15-49 41l-32-3c6-42 35-63 81-64 48-1 79 21 79 65 0 36-21 52-52 59" id="as"/><path d="M30-248c118-7 216 8 213 122C240-48 200 0 122 0H30v-248zM63-27c89 8 146-16 146-99s-60-101-146-95v194" id="at"/><g id="w"><use transform="matrix(0.05,0,0,0.05,0,0)" xlink:href="#as"/><use transform="matrix(0.05,0,0,0.05,10,0)" xlink:href="#at"/></g><path d="M108 0H70L1-190h34L89-25l56-165h34" id="au"/><path d="M210-169c-67 3-38 105-44 169h-31v-121c0-29-5-50-35-48C34-165 62-65 56 0H25l-1-190h30c1 10-1 24 2 32 10-44 99-50 107 0 11-21 27-35 58-36 85-2 47 119 55 194h-31v-121c0-29-5-49-35-48" id="av"/><g id="x"><use transform="matrix(0.05,0,0,0.05,0,0)" xlink:href="#au"/><use transform="matrix(0.05,0,0,0.05,9,0)" xlink:href="#ad"/><use transform="matrix(0.05,0,0,0.05,19,0)" xlink:href="#ag"/><use transform="matrix(0.05,0,0,0.05,22.95,0)" xlink:href="#af"/><use transform="matrix(0.05,0,0,0.05,32.95,0)" xlink:href="#av"/><use transform="matrix(0.05,0,0,0.05,47.900000000000006,0)" xlink:href="#X"/><use transform="matrix(0.05,0,0,0.05,57.900000000000006,0)" xlink:href="#ai"/></g><path d="M115-194c55 1 70 41 70 98S169 2 115 4C84 4 66-9 55-30l1 105H24l-1-265h31l2 30c10-21 28-34 59-34zm-8 174c40 0 45-34 45-75s-6-73-45-74c-42 0-51 32-51 76 0 43 10 73 51 73" id="aw"/><g id="y"><use transform="matrix(0.05,0,0,0.05,0,0)" xlink:href="#ah"/><use transform="matrix(0.05,0,0,0.05,9,0)" xlink:href="#Z"/><use transform="matrix(0.05,0,0,0.05,19,0)" xlink:href="#aa"/><use transform="matrix(0.05,0,0,0.05,29,0)" xlink:href="#aw"/><use transform="matrix(0.05,0,0,0.05,39,0)" xlink:href="#X"/></g><path d="M115-194c53 0 69 39 70 98 0 66-23 100-70 100C84 3 66-7 56-30L54 0H23l1-261h32v101c10-23 28-34 59-34zm-8 174c40 0 45-34 45-75 0-40-5-75-45-74-42 0-51 32-51 76 0 43 10 73 51 73" id="ax"/><g id="z"><use transform="matrix(0.05,0,0,0.05,0,0)" xlink:href="#ax"/><use transform="matrix(0.05,0,0,0.05,10,0)" xlink:href="#ad"/><use transform="matrix(0.05,0,0,0.05,20,0)" xlink:href="#W"/><use transform="matrix(0.05,0,0,0.05,25.950000000000003,0)" xlink:href="#ae"/><use transform="matrix(0.05,0,0,0.05,35.95,0)" xlink:href="#X"/><use transform="matrix(0.05,0,0,0.05,45.95,0)" xlink:href="#W"/><use transform="matrix(0.05,0,0,0.05,51.900000000000006,0)" xlink:href="#ah"/><use transform="matrix(0.05,0,0,0.05,60.900000000000006,0)" xlink:href="#ai"/></g><path d="M24 0v-248h52v208h133V0H24" id="ay"/><g id="A"><use transform="matrix(0.05,0,0,0.05,0,0)" xlink:href="#S"/><use transform="matrix(0.05,0,0,0.05,12.950000000000001,0)" xlink:href="#ay"/><use transform="matrix(0.05,0,0,0.05,23.900000000000002,0)" xlink:href="#T"/><use transform="matrix(0.05,0,0,0.05,36.85,0)" xlink:href="#an"/><use transform="matrix(0.05,0,0,0.05,48.85,0)" xlink:href="#an"/><use transform="matrix(0.05,0,0,0.05,60.85,0)" xlink:href="#M"/><use transform="matrix(0.05,0,0,0.05,65.85,0)" xlink:href="#R"/><use transform="matrix(0.05,0,0,0.05,76.8,0)" xlink:href="#M"/><use transform="matrix(0.05,0,0,0.05,81.8,0)" xlink:href="#S"/><use transform="matrix(0.05,0,0,0.05,94.75,0)" xlink:href="#T"/><use transform="matrix(0.05,0,0,0.05,106.35000000000001,0)" xlink:href="#Q"/><use transform="matrix(0.05,0,0,0.05,117.30000000000001,0)" xlink:href="#M"/><use transform="matrix(0.05,0,0,0.05,122.30000000000001,0)" xlink:href="#U"/><use transform="matrix(0.05,0,0,0.05,136.3,0)" xlink:href="#P"/></g><path d="M143 0L79-87 56-68V0H24v-261h32v163l83-92h37l-77 82L181 0h-38" id="az"/><g id="B"><use transform="matrix(0.05,0,0,0.05,0,0)" xlink:href="#az"/><use transform="matrix(0.05,0,0,0.05,9,0)" xlink:href="#ar"/><use transform="matrix(0.05,0,0,0.05,12.949999999999998,0)" xlink:href="#ab"/><use transform="matrix(0.05,0,0,0.05,22.95,0)" xlink:href="#ae"/></g><g id="C"><use transform="matrix(0.05,0,0,0.05,0,0)" xlink:href="#ad"/><use transform="matrix(0.05,0,0,0.05,10,0)" xlink:href="#ak"/></g><path d="M197 0v-115H63V0H30v-248h33v105h134v-105h34V0h-34" id="aA"/><g id="D"><use transform="matrix(0.05,0,0,0.05,0,0)" xlink:href="#aA"/><use transform="matrix(0.05,0,0,0.05,12.950000000000001,0)" xlink:href="#ad"/><use transform="matrix(0.05,0,0,0.05,22.950000000000003,0)" xlink:href="#am"/></g><path d="M96-169c-40 0-48 33-48 73s9 75 48 75c24 0 41-14 43-38l32 2c-6 37-31 61-74 61-59 0-76-41-82-99-10-93 101-131 147-64 4 7 5 14 7 22l-32 3c-4-21-16-35-41-35" id="aB"/><path d="M177-190C167-65 218 103 67 71c-23-6-38-20-44-43l32-5c15 47 100 32 89-28v-30C133-14 115 1 83 1 29 1 15-40 15-95c0-56 16-97 71-98 29-1 48 16 59 35 1-10 0-23 2-32h30zM94-22c36 0 50-32 50-73 0-42-14-75-50-75-39 0-46 34-46 75s6 73 46 73" id="aC"/><g id="E"><use transform="matrix(0.05,0,0,0.05,0,0)" xlink:href="#aB"/><use transform="matrix(0.05,0,0,0.05,9,0)" xlink:href="#ad"/><use transform="matrix(0.05,0,0,0.05,19,0)" xlink:href="#ab"/><use transform="matrix(0.05,0,0,0.05,29,0)" xlink:href="#aB"/><use transform="matrix(0.05,0,0,0.05,38,0)" xlink:href="#X"/><use transform="matrix(0.05,0,0,0.05,48,0)" xlink:href="#W"/><use transform="matrix(0.05,0,0,0.05,53.95,0)" xlink:href="#ab"/><use transform="matrix(0.05,0,0,0.05,63.95,0)" xlink:href="#ar"/><use transform="matrix(0.05,0,0,0.05,67.9,0)" xlink:href="#ab"/><use transform="matrix(0.05,0,0,0.05,77.9,0)" xlink:href="#aC"/></g><path d="M212-179c-10-28-35-45-73-45-59 0-87 40-87 99 0 60 29 101 89 101 43 0 62-24 78-52l27 14C228-24 195 4 139 4 59 4 22-46 18-125c-6-104 99-153 187-111 19 9 31 26 39 46" id="aD"/><g id="F"><use transform="matrix(0.05,0,0,0.05,0,0)" xlink:href="#aD"/><use transform="matrix(0.05,0,0,0.05,12.950000000000001,0)" xlink:href="#aa"/><use transform="matrix(0.05,0,0,0.05,22.950000000000003,0)" xlink:href="#ab"/></g><g id="G"><use transform="matrix(0.05,0,0,0.05,0,0)" xlink:href="#am"/><use transform="matrix(0.05,0,0,0.05,12.950000000000001,0)" xlink:href="#X"/></g><g id="H"><use transform="matrix(0.05,0,0,0.05,0,0)" xlink:href="#ax"/><use transform="matrix(0.05,0,0,0.05,10,0)" xlink:href="#aa"/><use transform="matrix(0.05,0,0,0.05,20,0)" xlink:href="#ag"/><use transform="matrix(0.05,0,0,0.05,23.95,0)" xlink:href="#aa"/><use transform="matrix(0.05,0,0,0.05,33.95,0)" xlink:href="#ab"/><use transform="matrix(0.05,0,0,0.05,43.95,0)" xlink:href="#aB"/><use transform="matrix(0.05,0,0,0.05,52.95,0)" xlink:href="#X"/></g><g id="I"><use transform="matrix(0.05,0,0,0.05,0,0)" xlink:href="#ah"/><use transform="matrix(0.05,0,0,0.05,9,0)" xlink:href="#X"/><use transform="matrix(0.05,0,0,0.05,19,0)" xlink:href="#ab"/><use transform="matrix(0.05,0,0,0.05,29,0)" xlink:href="#ah"/><use transform="matrix(0.05,0,0,0.05,38,0)" xlink:href="#ar"/><use transform="matrix(0.05,0,0,0.05,41.95,0)" xlink:href="#Y"/><use transform="matrix(0.05,0,0,0.05,46.95,0)" xlink:href="#ar"/><use transform="matrix(0.05,0,0,0.05,50.900000000000006,0)" xlink:href="#au"/><use transform="matrix(0.05,0,0,0.05,59.900000000000006,0)" xlink:href="#ar"/><use transform="matrix(0.05,0,0,0.05,63.85,0)" xlink:href="#Y"/><use transform="matrix(0.05,0,0,0.05,68.85000000000001,0)" xlink:href="#ac"/></g><g id="J"><use transform="matrix(0.05,0,0,0.05,0,0)" xlink:href="#am"/><use transform="matrix(0.05,0,0,0.05,12.950000000000001,0)" xlink:href="#ar"/><use transform="matrix(0.05,0,0,0.05,16.900000000000002,0)" xlink:href="#Y"/><use transform="matrix(0.05,0,0,0.05,21.900000000000002,0)" xlink:href="#Z"/></g><g id="K"><use transform="matrix(0.05,0,0,0.05,0,0)" xlink:href="#ak"/><use transform="matrix(0.05,0,0,0.05,5,0)" xlink:href="#aa"/><use transform="matrix(0.05,0,0,0.05,15,0)" xlink:href="#ag"/><use transform="matrix(0.05,0,0,0.05,18.95,0)" xlink:href="#ah"/><use transform="matrix(0.05,0,0,0.05,27.950000000000003,0)" xlink:href="#X"/></g><g id="L"><use transform="matrix(0.05,0,0,0.05,0,0)" xlink:href="#aw"/><use transform="matrix(0.05,0,0,0.05,10,0)" xlink:href="#ad"/><use transform="matrix(0.05,0,0,0.05,20,0)" xlink:href="#ah"/><use transform="matrix(0.05,0,0,0.05,29,0)" xlink:href="#ar"/><use transform="matrix(0.05,0,0,0.05,32.95,0)" xlink:href="#Y"/><use transform="matrix(0.05,0,0,0.05,37.95,0)" xlink:href="#ar"/><use transform="matrix(0.05,0,0,0.05,41.900000000000006,0)" xlink:href="#au"/><use transform="matrix(0.05,0,0,0.05,50.900000000000006,0)" xlink:href="#X"/><use transform="matrix(0.05,0,0,0.05,60.900000000000006,0)" xlink:href="#ah"/><use transform="matrix(0.05,0,0,0.05,69.9,0)" xlink:href="#ai"/></g></defs></g></svg>